<svg width="13" height="16" viewBox="0 0 13 16" fill="none" xmlns="http://www.w3.org/2000/svg">
<path d="M6.91406 15.7422C7.32031 15.7422 7.60938 15.4609 7.60938 15.0547V4.76562L7.55469 3.10156L9.89062 5.66406L11.6719 7.41406C11.7969 7.53906 11.9766 7.60156 12.1641 7.60156C12.5547 7.60156 12.8359 7.30469 12.8359 6.92188C12.8359 6.73438 12.7734 6.57031 12.625 6.41406L7.4375 1.21875C7.28906 1.0625 7.10938 0.984375 6.91406 0.984375C6.71875 0.984375 6.53906 1.0625 6.39062 1.21875L1.21094 6.41406C1.0625 6.57031 0.992188 6.73438 0.992188 6.92188C0.992188 7.30469 1.27344 7.60156 1.66406 7.60156C1.85156 7.60156 2.03906 7.53906 2.15625 7.41406L3.9375 5.66406L6.28125 3.09375L6.21875 4.76562V15.0547C6.21875 15.4609 6.50781 15.7422 6.91406 15.7422Z" fill="#8A8D94"/>
</svg>
