<svg width="12" height="13" viewBox="0 0 12 13" fill="none" xmlns="http://www.w3.org/2000/svg">
<path d="M5.99414 9.0957C6.11719 9.0957 6.2168 9.06055 6.33398 8.94336L8.31445 7.02734C8.40234 6.93945 8.45508 6.8457 8.45508 6.72266C8.45508 6.48242 8.26758 6.3125 8.02734 6.3125C7.91016 6.3125 7.79297 6.35938 7.71094 6.45312L6.82031 7.39648L6.42773 7.8125L6.46289 6.93359V0.757812C6.46289 0.511719 6.24609 0.300781 5.99414 0.300781C5.74219 0.300781 5.53125 0.511719 5.53125 0.757812V6.93359L5.56641 7.8125L5.16797 7.39648L4.2832 6.45312C4.20117 6.35938 4.07227 6.3125 3.96094 6.3125C3.71484 6.3125 3.53906 6.48242 3.53906 6.72266C3.53906 6.8457 3.58594 6.93945 3.67383 7.02734L5.6543 8.94336C5.77734 9.06055 5.87695 9.0957 5.99414 9.0957ZM2.63672 12.9512H9.35742C10.582 12.9512 11.1973 12.3418 11.1973 11.1348V5.28711C11.1973 4.08008 10.582 3.4707 9.35742 3.4707H7.72266V4.41406H9.33984C9.91992 4.41406 10.2539 4.73047 10.2539 5.33984V11.082C10.2539 11.6914 9.91992 12.0078 9.33984 12.0078H2.64844C2.0625 12.0078 1.74023 11.6914 1.74023 11.082V5.33984C1.74023 4.73047 2.0625 4.41406 2.64844 4.41406H4.27148V3.4707H2.63672C1.41211 3.4707 0.796875 4.08008 0.796875 5.28711V11.1348C0.796875 12.3418 1.41211 12.9512 2.63672 12.9512Z" fill="#8A8D94"/>
</svg>
