<svg width="18" height="13" viewBox="0 0 18 13" fill="none" xmlns="http://www.w3.org/2000/svg">
<path d="M0 11.7C0 12.197 0.403031 12.6 0.9 12.6H17.1C17.597 12.6 18 12.197 18 11.7V2.7H0V11.7ZM12.6 5.85C12.6 5.60138 12.8014 5.4 13.05 5.4H15.75C15.9986 5.4 16.2 5.60138 16.2 5.85V6.75C16.2 6.99863 15.9986 7.2 15.75 7.2H13.05C12.8014 7.2 12.6 6.99863 12.6 6.75V5.85ZM12.6 9.225C12.6 9.10069 12.7007 9 12.825 9H15.975C16.0993 9 16.2 9.10069 16.2 9.225V9.675C16.2 9.79931 16.0993 9.9 15.975 9.9H12.825C12.7007 9.9 12.6 9.79931 12.6 9.675V9.225ZM1.8 6.525C1.8 6.40069 1.90069 6.3 2.025 6.3H10.575C10.6993 6.3 10.8 6.40069 10.8 6.525V6.975C10.8 7.09931 10.6993 7.2 10.575 7.2H2.025C1.90069 7.2 1.8 7.09931 1.8 6.975V6.525ZM1.8 9.225C1.8 9.10069 1.90069 9 2.025 9H6.975C7.09931 9 7.2 9.10069 7.2 9.225V9.675C7.2 9.79931 7.09931 9.9 6.975 9.9H2.025C1.90069 9.9 1.8 9.79931 1.8 9.675V9.225ZM17.55 0H0.45C0.201375 0 0 0.201375 0 0.45V1.8H18V0.45C18 0.201375 17.7986 0 17.55 0Z" fill="white"/>
</svg>
