<svg width="17" height="18" viewBox="0 0 17 18" fill="none" xmlns="http://www.w3.org/2000/svg">
<path d="M15.7661 16.875H15.0429V0.84375C15.0429 0.377754 14.6543 0 14.175 0H2.025C1.54569 0 1.15714 0.377754 1.15714 0.84375V16.875H0.433929C0.194292 16.875 0 17.0639 0 17.2969V18H16.2V17.2969C16.2 17.0639 16.0057 16.875 15.7661 16.875ZM4.62857 2.67188C4.62857 2.43889 4.82286 2.25 5.0625 2.25H6.50893C6.74857 2.25 6.94286 2.43889 6.94286 2.67188V4.07812C6.94286 4.31111 6.74857 4.5 6.50893 4.5H5.0625C4.82286 4.5 4.62857 4.31111 4.62857 4.07812V2.67188ZM4.62857 6.04688C4.62857 5.81389 4.82286 5.625 5.0625 5.625H6.50893C6.74857 5.625 6.94286 5.81389 6.94286 6.04688V7.45312C6.94286 7.68611 6.74857 7.875 6.50893 7.875H5.0625C4.82286 7.875 4.62857 7.68611 4.62857 7.45312V6.04688ZM6.50893 11.25H5.0625C4.82286 11.25 4.62857 11.0611 4.62857 10.8281V9.42188C4.62857 9.18889 4.82286 9 5.0625 9H6.50893C6.74857 9 6.94286 9.18889 6.94286 9.42188V10.8281C6.94286 11.0611 6.74857 11.25 6.50893 11.25ZM9.25714 16.875H6.94286V13.9219C6.94286 13.6889 7.13715 13.5 7.37679 13.5H8.82321C9.06285 13.5 9.25714 13.6889 9.25714 13.9219V16.875ZM11.5714 10.8281C11.5714 11.0611 11.3771 11.25 11.1375 11.25H9.69107C9.45143 11.25 9.25714 11.0611 9.25714 10.8281V9.42188C9.25714 9.18889 9.45143 9 9.69107 9H11.1375C11.3771 9 11.5714 9.18889 11.5714 9.42188V10.8281ZM11.5714 7.45312C11.5714 7.68611 11.3771 7.875 11.1375 7.875H9.69107C9.45143 7.875 9.25714 7.68611 9.25714 7.45312V6.04688C9.25714 5.81389 9.45143 5.625 9.69107 5.625H11.1375C11.3771 5.625 11.5714 5.81389 11.5714 6.04688V7.45312ZM11.5714 4.07812C11.5714 4.31111 11.3771 4.5 11.1375 4.5H9.69107C9.45143 4.5 9.25714 4.31111 9.25714 4.07812V2.67188C9.25714 2.43889 9.45143 2.25 9.69107 2.25H11.1375C11.3771 2.25 11.5714 2.43889 11.5714 2.67188V4.07812Z" fill="white"/>
</svg>
