<svg width="50" height="43" viewBox="0 0 50 43" fill="none" xmlns="http://www.w3.org/2000/svg">
<path d="M0 40.1944C0 41.3498 0.776965 42.1053 1.96526 42.1053H47.7377C48.9717 42.1053 50 41.1721 50 39.9278C50 38.6835 48.9717 37.7503 47.7377 37.7503H5.11883C4.63894 37.7503 4.47898 37.5948 4.47898 37.1282V25.041L14.1682 19.5751C14.9452 20.2861 15.9735 20.7305 17.1389 20.7305C18.1216 20.7305 19.0585 20.3972 19.7898 19.8417L24.0859 23.3967C23.926 23.8411 23.8345 24.33 23.8345 24.8188C23.8345 27.174 25.777 29.0626 28.1764 29.0626C30.5759 29.0626 32.5411 27.174 32.5411 24.8188C32.5411 24.641 32.5183 24.441 32.4954 24.2633L42.9616 18.1753C43.6472 18.6419 44.4927 18.9085 45.3839 18.9085C47.7834 18.9085 49.7486 16.9976 49.7486 14.6646C49.7486 12.3316 47.7834 10.4208 45.3839 10.4208C42.9845 10.4208 41.0192 12.3316 41.0192 14.6646C41.0192 14.9535 41.0649 15.2423 41.1106 15.509L30.8501 21.4859C30.1188 20.9304 29.1819 20.5971 28.1764 20.5971C27.468 20.5971 26.7824 20.7527 26.1654 21.0637L21.4351 17.1532C21.458 16.931 21.4808 16.7088 21.4808 16.4866C21.4808 14.1536 19.5384 12.2427 17.1389 12.2427C14.7166 12.2427 12.7742 14.1536 12.7742 16.4866C12.7742 16.5533 12.7742 16.6199 12.7742 16.6866L4.47898 21.3526V2.19969C4.47898 0.977642 3.5192 0 2.23949 0C0.95978 0 0 0.977642 0 2.19969V40.1944Z" fill="url(#paint0_linear_477_22455)"/>
<defs>
<linearGradient id="paint0_linear_477_22455" x1="-1.24983e-07" y1="21" x2="50" y2="21" gradientUnits="userSpaceOnUse">
<stop stop-color="#00B805"/>
<stop offset="0.494792" stop-color="#36AFE2"/>
<stop offset="1" stop-color="#6A67E2"/>
</linearGradient>
</defs>
</svg>
