<svg width="9" height="8" viewBox="0 0 9 8" fill="none" xmlns="http://www.w3.org/2000/svg">
<path d="M3.256 7.92444C3.44865 7.92444 3.60098 7.83932 3.70851 7.67355L7.94234 1.00695C8.02298 0.877022 8.05434 0.778456 8.05434 0.675411C8.05434 0.428997 7.89306 0.267709 7.64664 0.267709C7.46743 0.267709 7.36887 0.325952 7.26134 0.496201L3.23808 6.90743L1.15029 4.17448C1.03828 4.01767 0.926277 3.95495 0.764988 3.95495C0.509614 3.95495 0.334885 4.12968 0.334885 4.37609C0.334885 4.47914 0.379687 4.59562 0.464812 4.70315L2.79006 7.66459C2.92447 7.83932 3.06335 7.92444 3.256 7.92444Z" fill="#343538"/>
</svg>
