<svg width="7" height="12" viewBox="0 0 7 12" fill="none" xmlns="http://www.w3.org/2000/svg">
<path d="M6.90643 6C6.89966 5.76325 6.81173 5.56032 6.62909 5.37768L1.3664 0.229989C1.21082 0.0811725 1.02818 0 0.804961 0C0.351747 0 0 0.351747 0 0.804961C0 1.02142 0.0879369 1.22435 0.243517 1.37993L4.97858 6L0.243517 10.6201C0.0879369 10.7756 0 10.9718 0 11.195C0 11.6483 0.351747 12 0.804961 12C1.02142 12 1.21082 11.9188 1.3664 11.77L6.62909 6.61556C6.81849 6.43968 6.90643 6.23675 6.90643 6Z" fill="white"/>
</svg>
