<svg width="50" height="50" viewBox="0 0 50 50" fill="none" xmlns="http://www.w3.org/2000/svg">
<path d="M24.9879 49.9758C38.6902 49.9758 50 38.666 50 24.9879C50 11.3098 38.666 0 24.9637 0C11.2856 0 0 11.3098 0 24.9879C0 38.666 11.3098 49.9758 24.9879 49.9758ZM24.9879 44.9976C13.8956 44.9976 5.02658 36.0802 5.02658 24.9879C5.02658 13.8956 13.8956 5.00242 24.9637 5.00242C36.0561 5.00242 44.9734 13.8956 44.9976 24.9879C45.0217 36.0802 36.0802 44.9976 24.9879 44.9976ZM12.8081 28.0329H24.9637C26.0754 28.0329 26.9212 27.187 26.9212 26.0996V10.2948C26.9212 9.20735 26.0754 8.36153 24.9637 8.36153C23.9004 8.36153 23.0546 9.20735 23.0546 10.2948V24.1663H12.8081C11.7206 24.1663 10.8748 25.0121 10.8748 26.0996C10.8748 27.187 11.7206 28.0329 12.8081 28.0329Z" fill="url(#paint0_linear_477_22463)"/>
<defs>
<linearGradient id="paint0_linear_477_22463" x1="9.44281e-08" y1="25" x2="50" y2="25" gradientUnits="userSpaceOnUse">
<stop stop-color="#00B805"/>
<stop offset="0.567305" stop-color="#36AFE2"/>
<stop offset="1" stop-color="#6A67E2"/>
</linearGradient>
</defs>
</svg>
