<svg width="12" height="16" viewBox="0 0 12 16" fill="none" xmlns="http://www.w3.org/2000/svg">
<path d="M0.00585938 13.7949C0.00585938 15.0195 0.609375 15.6348 1.82227 15.6348H7.33008C8.54297 15.6348 9.14648 15.0137 9.14648 13.7949V12.7109H10.1719C11.3789 12.7109 11.9883 12.0898 11.9883 10.8711V6.11328C11.9883 5.39258 11.8418 4.93555 11.4023 4.48438L8.44336 1.47852C8.02734 1.05078 7.53516 0.892578 6.9082 0.892578H4.66406C3.45703 0.892578 2.84766 1.51367 2.84766 2.73242V3.81641H1.82227C0.615234 3.81641 0.00585938 4.43164 0.00585938 5.65625V13.7949ZM8.58984 7.66016L5.36133 4.37305C4.91602 3.91602 4.54688 3.81641 3.89062 3.81641H3.79102V2.75C3.79102 2.16992 4.10156 1.83594 4.71094 1.83594H7.30078V4.8418C7.30078 5.52148 7.62891 5.84375 8.30273 5.84375H11.0449V10.8535C11.0449 11.4395 10.7285 11.7676 10.1191 11.7676H9.14648V9.21875C9.14648 8.46875 9.05859 8.14062 8.58984 7.66016ZM8.15039 4.70117V2.29883L10.7988 4.99414H8.4375C8.23242 4.99414 8.15039 4.90625 8.15039 4.70117ZM0.949219 13.7773V5.66797C0.949219 5.09375 1.25977 4.75977 1.86914 4.75977H3.79102V8.1582C3.79102 8.89648 4.16602 9.26562 4.89258 9.26562H8.20312V13.7773C8.20312 14.3633 7.88672 14.6914 7.2832 14.6914H1.86328C1.25977 14.6914 0.949219 14.3633 0.949219 13.7773ZM5.00391 8.38086C4.76953 8.38086 4.67578 8.28711 4.67578 8.05273V4.97656L8.02148 8.38086H5.00391Z" fill="#36B37E"/>
</svg>
