<svg width="15" height="10" viewBox="0 0 15 10" fill="none" xmlns="http://www.w3.org/2000/svg">
<path d="M11.4697 9.70801C11.6162 9.85938 11.8506 9.86914 12.002 9.70801C12.1631 9.54688 12.1484 9.32715 12.002 9.17578L3.83789 1.0166C3.69141 0.870117 3.45215 0.870117 3.30078 1.0166C3.15918 1.1582 3.15918 1.40723 3.30078 1.54883L11.4697 9.70801ZM7.6709 1.29492C6.82129 1.29492 6.0498 1.44141 5.33203 1.68066L5.97656 2.32031C6.51367 2.15918 7.06543 2.06641 7.6709 2.06641C10.8838 2.06641 13.4863 4.89844 13.4863 5.47949C13.4863 5.875 12.6318 6.93945 11.2793 7.76953L11.8799 8.37012C13.4229 7.36914 14.3408 6.05566 14.3408 5.47949C14.3408 4.47852 11.6162 1.29492 7.6709 1.29492ZM7.6709 9.66406C8.5791 9.66406 9.40918 9.50293 10.166 9.24414L9.52637 8.60449C8.94531 8.78516 8.33008 8.89258 7.6709 8.89258C4.45312 8.89258 1.85059 6.16797 1.85059 5.47949C1.85059 5.1377 2.75391 4 4.19434 3.13574L3.58887 2.53027C1.96289 3.53613 0.996094 4.88867 0.996094 5.47949C0.996094 6.47559 3.77441 9.66406 7.6709 9.66406ZM10.1758 6.54883C10.3271 6.22168 10.4102 5.85547 10.4102 5.47949C10.4102 3.95117 9.18945 2.74512 7.6709 2.74512C7.28516 2.74512 6.92383 2.82812 6.59668 2.96973L10.1758 6.54883ZM7.6709 8.21387C8.10059 8.21387 8.50586 8.10645 8.86719 7.93066L5.20508 4.26855C5.02441 4.62988 4.92188 5.04004 4.92188 5.47949C4.92676 6.96875 6.14258 8.21387 7.6709 8.21387Z" fill="#8A8D94"/>
</svg>
