<svg width="150" height="34" viewBox="0 0 150 34" fill="none" xmlns="http://www.w3.org/2000/svg">
<path d="M37.7209 10.5801H42.2643C44.4715 10.5801 46.0355 11.7954 46.0355 13.8906C46.0355 15.1597 45.4095 16.1708 44.4156 16.687V16.7236C45.7945 17.128 46.569 18.4165 46.569 19.8706C46.569 22.3164 44.6565 23.5684 42.3741 23.5684H37.7188V10.5801H37.7209ZM42.2665 16.0438C43.4432 16.0438 44.179 15.2157 44.179 14.0756C44.179 12.9355 43.4798 12.1633 42.2471 12.1633H39.543V16.046H42.2665V16.0438ZM42.4687 21.9873C43.867 21.9873 44.6953 21.1032 44.6953 19.7609C44.6953 18.4552 43.8305 17.5539 42.4687 17.5539H39.543V21.9873H42.4687Z" fill="white"/>
<path d="M49.0547 10.5803H50.8768V18.9502C50.8768 20.955 52.1826 22.1144 54.1704 22.1144C56.1581 22.1144 57.4446 20.955 57.4446 18.9308V10.5781H59.2667V18.9674C59.2667 21.8735 57.2251 23.788 54.1876 23.788C51.1328 23.788 49.0547 21.8756 49.0547 18.9674V10.5803Z" fill="white"/>
<path d="M62.5625 10.5801H64.3846V23.5684H62.5625V10.5801Z" fill="white"/>
<path d="M68.1819 10.5803H70.004V21.9854H75.836V23.5686H68.1819V10.5803Z" fill="white"/>
<path d="M77.5022 10.5803H81.8262C85.7823 10.5803 88.394 12.953 88.394 17.0551C88.394 21.1766 85.7823 23.5665 81.8262 23.5665H77.5022V10.5803ZM81.6971 21.9876C84.6035 21.9876 86.5181 20.2774 86.5181 17.0573C86.5181 13.8736 84.5863 12.1635 81.6971 12.1635H79.3243V21.9876H81.6971Z" fill="white"/>
<path d="M102.545 10.5801H107.31C109.683 10.5801 111.376 12.1805 111.376 14.6456C111.376 17.1108 109.683 18.7671 107.31 18.7671H104.367V23.5684H102.545V10.5801ZM107.015 17.1861C108.56 17.1861 109.536 16.2116 109.536 14.6478C109.536 13.1033 108.562 12.1633 107.035 12.1633H104.367V17.1861H107.015Z" fill="white"/>
<path d="M116.73 12.1633H112.26V10.5801H123.003V12.1633H118.533V23.5684H116.73V12.1633Z" fill="white"/>
<path d="M125.01 10.5801H126.832V23.5684H125.01V10.5801Z" fill="white"/>
<path d="M128.783 10.5801H130.734L133.972 19.7609C134.194 20.46 134.469 21.5463 134.469 21.5463H134.506C134.506 21.5463 134.764 20.46 135.002 19.7609L138.259 10.5801H140.191L135.443 23.5684H133.531L128.783 10.5801Z" fill="white"/>
<path d="M142.123 10.5803H149.685V12.1635H143.945V16.2291H148.601V17.8123H143.945V21.9875H149.999V23.5707H142.125V10.5803H142.123Z" fill="white"/>
<path d="M100.631 23.5684H98.6796L95.4419 14.3875C95.2204 13.6884 94.945 12.6021 94.945 12.6021H94.9084C94.9084 12.6021 94.6503 13.6884 94.4115 14.3875L91.1545 23.5684H89.2227L93.9705 10.5801H95.8829L100.631 23.5684Z" fill="white"/>
<path d="M13.8906 26.9409V25.0436L0 33.1253L12.0104 27.7153V29.6383L27.5145 20.3671L26.8045 19.1367L13.8906 26.9409Z" fill="#00B805"/>
<path d="M30.3579 18.0117H26.0684L26.8041 19.2852L27.514 20.5156L28.2132 21.7267L30.3579 18.0117Z" fill="#00B805"/>
<path d="M5.04238 3.04809L9.84613 0.339863V0L4.74982 2.87816V10.2693L5.04238 10.4457V3.04809Z" fill="#00B805"/>
<path d="M0.286116 14.2264L4.80159 11.6838V11.3203L0 14.0586V31.9536L0.28827 31.7879L0.286116 14.2264Z" fill="#00B805"/>
<path d="M24.8211 10.5618L18.5566 6.95874V22.3864L24.8211 18.7403V10.5618Z" fill="#00B805"/>
<path d="M11.0738 25.6444V15.0976L4.80078 11.3203L4.80723 29.254L11.0738 25.6444Z" fill="#00B805"/>
<path d="M12.0097 25.1071L13.892 23.9821V9.544L18.5408 6.95839V5.06328L9.84766 0.00390625V13.2998L12.0097 14.5367V25.1071Z" fill="#00B805"/>
</svg>
