<svg width="19" height="10" viewBox="0 0 19 10" fill="none" xmlns="http://www.w3.org/2000/svg">
<path d="M0.900391 1.49902H17.3535C17.7227 1.49902 18.0215 1.20898 18.0215 0.839844C18.0215 0.470703 17.7227 0.171875 17.3535 0.171875H0.900391C0.53125 0.171875 0.241211 0.470703 0.241211 0.839844C0.241211 1.20898 0.53125 1.49902 0.900391 1.49902ZM0.900391 5.33105H17.3535C17.7227 5.33105 18.0215 5.04102 18.0215 4.67188C18.0215 4.29395 17.7227 3.99512 17.3535 3.99512H0.900391C0.53125 3.99512 0.241211 4.29395 0.241211 4.67188C0.241211 5.04102 0.53125 5.33105 0.900391 5.33105ZM0.900391 9.17188H17.3535C17.7227 9.17188 18.0215 8.87305 18.0215 8.49512C18.0215 8.12598 17.7227 7.83594 17.3535 7.83594H0.900391C0.53125 7.83594 0.241211 8.12598 0.241211 8.49512C0.241211 8.87305 0.53125 9.17188 0.900391 9.17188Z" fill="white"/>
</svg>
