<svg width="11" height="11" viewBox="0 0 11 11" fill="none" xmlns="http://www.w3.org/2000/svg">
<path d="M5.85449 10.4551C8.5791 10.4551 10.835 8.19434 10.835 5.47461C10.835 2.75 8.57422 0.494141 5.84961 0.494141C3.12988 0.494141 0.874023 2.75 0.874023 5.47461C0.874023 8.19434 3.13477 10.4551 5.85449 10.4551ZM5.85449 9.625C3.5498 9.625 1.70898 7.7793 1.70898 5.47461C1.70898 3.16992 3.54492 1.32422 5.84961 1.32422C8.1543 1.32422 10.0049 3.16992 10.0049 5.47461C10.0049 7.7793 8.15918 9.625 5.85449 9.625ZM5.81055 3.78516C6.16699 3.78516 6.44531 3.50195 6.44531 3.14551C6.44531 2.78906 6.16699 2.50586 5.81055 2.50586C5.45898 2.50586 5.17578 2.78906 5.17578 3.14551C5.17578 3.50195 5.45898 3.78516 5.81055 3.78516ZM5 8.20898H6.9873C7.1875 8.20898 7.34375 8.0625 7.34375 7.8623C7.34375 7.67188 7.1875 7.52051 6.9873 7.52051H6.38184V5.03516C6.38184 4.77148 6.25 4.5957 6.00098 4.5957H5.08301C4.88281 4.5957 4.72656 4.74707 4.72656 4.9375C4.72656 5.1377 4.88281 5.28418 5.08301 5.28418H5.60547V7.52051H5C4.7998 7.52051 4.64355 7.67188 4.64355 7.8623C4.64355 8.0625 4.7998 8.20898 5 8.20898Z" fill="#8A8D94"/>
</svg>
