<svg width="13" height="14" viewBox="0 0 13 14" fill="none" xmlns="http://www.w3.org/2000/svg">
<path d="M3.88477 13.2754H9.25781C10.0957 13.2754 10.6582 12.7305 10.6992 11.8926L11.1035 3.37305H11.8066C12.0469 3.37305 12.2402 3.16797 12.2402 2.92773C12.2402 2.6875 12.0469 2.48828 11.8066 2.48828H9.12891V1.5918C9.12891 0.742188 8.57812 0.226562 7.67578 0.226562H5.44922C4.54688 0.226562 3.99609 0.742188 3.99609 1.5918V2.48828H1.33594C1.10156 2.48828 0.896484 2.6875 0.896484 2.92773C0.896484 3.17383 1.10156 3.37305 1.33594 3.37305H2.03906L2.44336 11.8984C2.48438 12.7363 3.03516 13.2754 3.88477 13.2754ZM4.92773 1.65039C4.92773 1.31641 5.16211 1.09961 5.51367 1.09961H7.61133C7.96289 1.09961 8.19727 1.31641 8.19727 1.65039V2.48828H4.92773V1.65039ZM3.9668 12.3906C3.63281 12.3906 3.38086 12.1387 3.36328 11.793L2.95312 3.37305H10.1602L9.77344 11.793C9.76172 12.1445 9.50977 12.3906 9.16406 12.3906H3.9668ZM4.83398 11.3887C5.05664 11.3887 5.20312 11.248 5.19727 11.043L5.01562 4.77344C5.00977 4.56836 4.86328 4.43359 4.65234 4.43359C4.42969 4.43359 4.2832 4.57422 4.28906 4.7793L4.46484 11.043C4.4707 11.2539 4.61719 11.3887 4.83398 11.3887ZM6.56836 11.3887C6.79102 11.3887 6.94922 11.248 6.94922 11.043V4.7793C6.94922 4.57422 6.79102 4.43359 6.56836 4.43359C6.3457 4.43359 6.19336 4.57422 6.19336 4.7793V11.043C6.19336 11.248 6.3457 11.3887 6.56836 11.3887ZM8.30859 11.3887C8.51953 11.3887 8.66602 11.2539 8.67188 11.043L8.84766 4.7793C8.85352 4.57422 8.70703 4.43359 8.48438 4.43359C8.27344 4.43359 8.12695 4.56836 8.12109 4.7793L7.94531 11.043C7.93945 11.248 8.08594 11.3887 8.30859 11.3887Z" fill="#8A8D94"/>
</svg>
