<svg width="16" height="20" viewBox="0 0 16 20" fill="none" xmlns="http://www.w3.org/2000/svg">
<path d="M12.5714 12.2857C11.764 12.2857 11.0219 12.5649 10.4361 13.0319L6.77586 10.7443C6.88425 10.254 6.88425 9.74592 6.77586 9.25562L10.4361 6.96797C11.0219 7.43501 11.764 7.71426 12.5714 7.71426C14.465 7.71426 16 6.17922 16 4.28569C16 2.39215 14.465 0.857117 12.5714 0.857117C10.6779 0.857117 9.14286 2.39215 9.14286 4.28569C9.14286 4.54133 9.17107 4.79033 9.22414 5.03001L5.56393 7.31765C4.97811 6.85065 4.236 6.5714 3.42857 6.5714C1.53504 6.5714 0 8.10644 0 9.99997C0 11.8935 1.53504 13.4285 3.42857 13.4285C4.236 13.4285 4.97811 13.1493 5.56393 12.6823L9.22414 14.9699C9.17004 15.2143 9.14279 15.4639 9.14286 15.7143C9.14286 17.6078 10.6779 19.1428 12.5714 19.1428C14.465 19.1428 16 17.6078 16 15.7143C16 13.8207 14.465 12.2857 12.5714 12.2857Z" fill="#4D4BCF"/>
</svg>
