<svg width="18" height="14" viewBox="0 0 18 14" fill="none" xmlns="http://www.w3.org/2000/svg">
<path d="M17.7509 7.46542L11.7506 13.4657C11.2148 14.0015 10.2862 13.6264 10.2862 12.8585V9.4298H5.42884C4.95382 9.4298 4.57166 9.04764 4.57166 8.57261V5.14387C4.57166 4.66885 4.95382 4.28669 5.42884 4.28669H10.2862V0.857945C10.2862 0.0936214 11.2113 -0.284969 11.7506 0.250772L17.7509 6.25107C18.083 6.5868 18.083 7.12968 17.7509 7.46542ZM6.85748 13.2871V11.8585C6.85748 11.6228 6.66462 11.4299 6.42889 11.4299H3.42874C2.79657 11.4299 2.28583 10.9192 2.28583 10.287V3.4295C2.28583 2.79733 2.79657 2.28659 3.42874 2.28659H6.42889C6.66462 2.28659 6.85748 2.09372 6.85748 1.85799V0.429352C6.85748 0.193626 6.66462 0.000759633 6.42889 0.000759633H3.42874C1.53579 0.000759633 0 1.53655 0 3.4295V10.287C0 12.1799 1.53579 13.7157 3.42874 13.7157H6.42889C6.66462 13.7157 6.85748 13.5229 6.85748 13.2871Z" fill="white"/>
</svg>
