<svg width="18" height="13" viewBox="0 0 18 13" fill="none" xmlns="http://www.w3.org/2000/svg">
<path d="M2.7 5.4C3.69281 5.4 4.5 4.59281 4.5 3.6C4.5 2.60719 3.69281 1.8 2.7 1.8C1.70719 1.8 0.9 2.60719 0.9 3.6C0.9 4.59281 1.70719 5.4 2.7 5.4ZM15.3 5.4C16.2928 5.4 17.1 4.59281 17.1 3.6C17.1 2.60719 16.2928 1.8 15.3 1.8C14.3072 1.8 13.5 2.60719 13.5 3.6C13.5 4.59281 14.3072 5.4 15.3 5.4ZM16.2 6.3H14.4C13.905 6.3 13.4578 6.49969 13.1316 6.82313C14.265 7.44469 15.0694 8.56688 15.2437 9.9H17.1C17.5978 9.9 18 9.49781 18 9V8.1C18 7.10719 17.1928 6.3 16.2 6.3ZM9 6.3C10.7409 6.3 12.15 4.89094 12.15 3.15C12.15 1.40906 10.7409 0 9 0C7.25906 0 5.85 1.40906 5.85 3.15C5.85 4.89094 7.25906 6.3 9 6.3ZM11.16 7.2H10.9266C10.3416 7.48125 9.69188 7.65 9 7.65C8.30812 7.65 7.66125 7.48125 7.07344 7.2H6.84C5.05125 7.2 3.6 8.65125 3.6 10.44V11.25C3.6 11.9953 4.20469 12.6 4.95 12.6H13.05C13.7953 12.6 14.4 11.9953 14.4 11.25V10.44C14.4 8.65125 12.9487 7.2 11.16 7.2ZM4.86844 6.82313C4.54219 6.49969 4.095 6.3 3.6 6.3H1.8C0.807187 6.3 0 7.10719 0 8.1V9C0 9.49781 0.402187 9.9 0.9 9.9H2.75344C2.93062 8.56688 3.735 7.44469 4.86844 6.82313Z" fill="white"/>
</svg>
