<svg width="15" height="14" viewBox="0 0 15 14" fill="none" xmlns="http://www.w3.org/2000/svg">
<path d="M6.45246 1.09169L7.14613 0.398022C7.43985 0.104305 7.9148 0.104305 8.20539 0.398022L14.2797 6.46922C14.5734 6.76294 14.5734 7.23788 14.2797 7.52848L8.20539 13.6028C7.91167 13.8965 7.43673 13.8965 7.14613 13.6028L6.45246 12.9091C6.15562 12.6123 6.16187 12.128 6.46496 11.8374L10.2302 8.25027H1.24992C0.834338 8.25027 0.5 7.91593 0.5 7.50036V6.50047C0.5 6.08489 0.834338 5.75055 1.24992 5.75055H10.2302L6.46496 2.16345C6.15874 1.87286 6.15249 1.38854 6.45246 1.09169Z" fill="white"/>
</svg>
