<svg width="14" height="18" viewBox="0 0 14 18" fill="none" xmlns="http://www.w3.org/2000/svg">
<path d="M11.8125 0H1.6875C0.755859 0 0 0.755859 0 1.6875V16.3125C0 17.2441 0.755859 18 1.6875 18H11.8125C12.7441 18 13.5 17.2441 13.5 16.3125V1.6875C13.5 0.755859 12.7441 0 11.8125 0ZM5.0625 1.125H8.4375C8.74688 1.125 9 1.37812 9 1.6875C9 1.99688 8.74688 2.25 8.4375 2.25H5.0625C4.75313 2.25 4.5 1.99688 4.5 1.6875C4.5 1.37812 4.75313 1.125 5.0625 1.125ZM6.75 5.625C7.99102 5.625 9 6.63398 9 7.875C9 9.11602 7.99102 10.125 6.75 10.125C5.50899 10.125 4.5 9.11602 4.5 7.875C4.5 6.63398 5.50899 5.625 6.75 5.625ZM10.6875 13.95C10.6875 14.3227 10.3359 14.625 9.9 14.625H3.6C3.16406 14.625 2.8125 14.3227 2.8125 13.95V13.275C2.8125 12.157 3.8707 11.25 5.175 11.25H5.35078C5.7832 11.4293 6.2543 11.5312 6.75 11.5312C7.2457 11.5312 7.72031 11.4293 8.14922 11.25H8.325C9.6293 11.25 10.6875 12.157 10.6875 13.275V13.95Z" fill="white"/>
</svg>
