<?xml version="1.0" standalone="no"?>
<!DOCTYPE svg PUBLIC "-//W3C//DTD SVG 20010904//EN"
 "http://www.w3.org/TR/2001/REC-SVG-20010904/DTD/svg10.dtd">
<svg version="1.0" xmlns="http://www.w3.org/2000/svg"
 width="523.000000pt" height="523.000000pt" viewBox="0 0 523.000000 523.000000"
 preserveAspectRatio="xMidYMid meet">
<metadata>
Created by potrace 1.14, written by Peter Selinger 2001-2017
</metadata>
<g transform="translate(0.000000,523.000000) scale(0.100000,-0.100000)"
fill="#000000" stroke="none">
<path d="M2380 5209 c-224 -20 -504 -87 -715 -172 -332 -134 -601 -312 -861
-571 -411 -412 -650 -896 -736 -1491 -19 -131 -16 -531 5 -668 88 -577 331
-1063 732 -1462 397 -397 889 -640 1470 -727 140 -20 561 -17 700 5 402 67
729 191 1036 393 485 320 834 770 1023 1322 95 277 129 491 130 812 1 247 -6
322 -50 540 -131 644 -527 1224 -1094 1602 -145 97 -374 214 -535 273 -336
124 -739 176 -1105 144z m1995 -1934 c252 -47 461 -87 463 -89 2 -3 -142 -174
-319 -381 l-323 -377 -39 111 c-22 61 -45 111 -51 111 -6 -1 -474 -171 -1041
-378 -566 -208 -1031 -373 -1033 -367 -1 5 42 199 97 430 55 231 98 421 97
423 -2 1 -420 -83 -931 -188 -510 -105 -929 -189 -931 -187 -2 1 532 212 1187
466 654 255 1191 462 1194 460 2 -3 -25 -155 -60 -339 -35 -184 -63 -336 -62
-336 2 -2 1275 441 1319 458 15 6 12 20 -28 133 -24 69 -44 130 -44 136 0 5
10 7 23 4 12 -3 229 -44 482 -90z"/>
</g>
</svg>
