<svg width="12" height="13" viewBox="0 0 12 13" fill="none" xmlns="http://www.w3.org/2000/svg">
<path d="M0.283961 10.293C-0.0872752 10.6642 -0.104953 11.3271 0.2928 11.7072C0.672875 12.105 1.34464 12.0873 1.71587 11.716L6.00277 7.42914L10.2897 11.716C10.6697 12.0961 11.3238 12.105 11.7039 11.7072C12.1016 11.3271 12.0928 10.6642 11.7127 10.2841L7.42584 5.99723L11.7127 1.71918C12.0928 1.33026 12.1016 0.67618 11.7039 0.296105C11.3238 -0.101648 10.6697 -0.0928091 10.2897 0.287266L6.00277 4.57416L1.71587 0.287266C1.34464 -0.0839701 0.672875 -0.101648 0.2928 0.296105C-0.104953 0.67618 -0.0872752 1.3391 0.283961 1.71034L4.57086 5.99723L0.283961 10.293Z" fill="white"/>
</svg>
