<svg width="13" height="15" viewBox="0 0 13 15" fill="none" xmlns="http://www.w3.org/2000/svg">
<path d="M10.8066 7.8042L6.14111 12.4697C4.92871 13.6885 3.29736 13.5679 2.25635 12.5142C1.20898 11.4731 1.08838 9.85449 2.30078 8.63574L8.66748 2.27539C9.39746 1.54541 10.4702 1.44385 11.1685 2.13574C11.8604 2.84033 11.7588 3.90674 11.0352 4.63672L4.81445 10.8574C4.50342 11.1812 4.12256 11.0859 3.90674 10.8701C3.69092 10.6479 3.60205 10.2798 3.91309 9.95605L8.26123 5.62061C8.45166 5.42383 8.46436 5.14453 8.28027 4.96045C8.09619 4.78271 7.81689 4.79541 7.62646 4.98584L3.26562 9.34668C2.61816 9.99414 2.64355 10.9844 3.21484 11.5557C3.83691 12.1777 4.77637 12.165 5.43018 11.5112L11.6763 5.26514C12.8633 4.07812 12.8125 2.5166 11.7778 1.48193C10.7686 0.472656 9.18164 0.396484 7.99463 1.5835L1.59619 7.98828C0.0283203 9.55615 0.148926 11.7969 1.56445 13.2124C2.97998 14.6216 5.2207 14.7422 6.78857 13.1807L11.4858 8.4834C11.6699 8.29932 11.6699 7.96289 11.4795 7.7915C11.2954 7.59473 10.9971 7.62012 10.8066 7.8042Z" fill="#8A8D94"/>
</svg>
