<svg width="12" height="21" viewBox="0 0 12 21" fill="none" xmlns="http://www.w3.org/2000/svg">
<path d="M0.5 10.5391C0.5 10.832 0.605469 11.0898 0.828125 11.3125L10.1211 20.3945C10.3203 20.6055 10.5781 20.7109 10.8828 20.7109C11.4922 20.7109 11.9609 20.2539 11.9609 19.6445C11.9609 19.3398 11.832 19.082 11.6445 18.8828L3.11328 10.5391L11.6445 2.19531C11.832 1.99609 11.9609 1.72656 11.9609 1.43359C11.9609 0.824219 11.4922 0.367188 10.8828 0.367188C10.5781 0.367188 10.3203 0.472656 10.1211 0.671875L0.828125 9.76562C0.605469 9.97656 0.5 10.2461 0.5 10.5391Z" fill="#8A8D94"/>
</svg>
