<svg width="17" height="15" viewBox="0 0 17 15" fill="none" xmlns="http://www.w3.org/2000/svg">
<path d="M3.44531 14.5625H14.1172C15.75 14.5625 16.5625 13.75 16.5625 12.1406V2.60156C16.5625 0.992188 15.75 0.179688 14.1172 0.179688H3.44531C1.8125 0.179688 0.992188 0.984375 0.992188 2.60156V12.1406C0.992188 13.7578 1.8125 14.5625 3.44531 14.5625ZM3.32812 13.3047C2.63281 13.3047 2.25 12.9375 2.25 12.2109V4.84375C2.25 4.125 2.63281 3.75 3.32812 3.75H14.2188C14.9141 3.75 15.3047 4.125 15.3047 4.84375V12.2109C15.3047 12.9375 14.9141 13.3047 14.2188 13.3047H3.32812ZM7.25781 6.55469H7.71875C7.99219 6.55469 8.07812 6.47656 8.07812 6.20312V5.74219C8.07812 5.46875 7.99219 5.38281 7.71875 5.38281H7.25781C6.98438 5.38281 6.89062 5.46875 6.89062 5.74219V6.20312C6.89062 6.47656 6.98438 6.55469 7.25781 6.55469ZM9.85156 6.55469H10.3125C10.5859 6.55469 10.6797 6.47656 10.6797 6.20312V5.74219C10.6797 5.46875 10.5859 5.38281 10.3125 5.38281H9.85156C9.57812 5.38281 9.48438 5.46875 9.48438 5.74219V6.20312C9.48438 6.47656 9.57812 6.55469 9.85156 6.55469ZM12.4453 6.55469H12.9062C13.1797 6.55469 13.2734 6.47656 13.2734 6.20312V5.74219C13.2734 5.46875 13.1797 5.38281 12.9062 5.38281H12.4453C12.1719 5.38281 12.0859 5.46875 12.0859 5.74219V6.20312C12.0859 6.47656 12.1719 6.55469 12.4453 6.55469ZM4.66406 9.10938H5.11719C5.39844 9.10938 5.48438 9.03125 5.48438 8.75781V8.29688C5.48438 8.02344 5.39844 7.94531 5.11719 7.94531H4.66406C4.38281 7.94531 4.29688 8.02344 4.29688 8.29688V8.75781C4.29688 9.03125 4.38281 9.10938 4.66406 9.10938ZM7.25781 9.10938H7.71875C7.99219 9.10938 8.07812 9.03125 8.07812 8.75781V8.29688C8.07812 8.02344 7.99219 7.94531 7.71875 7.94531H7.25781C6.98438 7.94531 6.89062 8.02344 6.89062 8.29688V8.75781C6.89062 9.03125 6.98438 9.10938 7.25781 9.10938ZM9.85156 9.10938H10.3125C10.5859 9.10938 10.6797 9.03125 10.6797 8.75781V8.29688C10.6797 8.02344 10.5859 7.94531 10.3125 7.94531H9.85156C9.57812 7.94531 9.48438 8.02344 9.48438 8.29688V8.75781C9.48438 9.03125 9.57812 9.10938 9.85156 9.10938ZM12.4453 9.10938H12.9062C13.1797 9.10938 13.2734 9.03125 13.2734 8.75781V8.29688C13.2734 8.02344 13.1797 7.94531 12.9062 7.94531H12.4453C12.1719 7.94531 12.0859 8.02344 12.0859 8.29688V8.75781C12.0859 9.03125 12.1719 9.10938 12.4453 9.10938ZM4.66406 11.6719H5.11719C5.39844 11.6719 5.48438 11.5859 5.48438 11.3125V10.8516C5.48438 10.5781 5.39844 10.5 5.11719 10.5H4.66406C4.38281 10.5 4.29688 10.5781 4.29688 10.8516V11.3125C4.29688 11.5859 4.38281 11.6719 4.66406 11.6719ZM7.25781 11.6719H7.71875C7.99219 11.6719 8.07812 11.5859 8.07812 11.3125V10.8516C8.07812 10.5781 7.99219 10.5 7.71875 10.5H7.25781C6.98438 10.5 6.89062 10.5781 6.89062 10.8516V11.3125C6.89062 11.5859 6.98438 11.6719 7.25781 11.6719ZM9.85156 11.6719H10.3125C10.5859 11.6719 10.6797 11.5859 10.6797 11.3125V10.8516C10.6797 10.5781 10.5859 10.5 10.3125 10.5H9.85156C9.57812 10.5 9.48438 10.5781 9.48438 10.8516V11.3125C9.48438 11.5859 9.57812 11.6719 9.85156 11.6719Z" fill="#8A8D94"/>
</svg>
