<svg width="7" height="11" viewBox="0 0 7 11" fill="none" xmlns="http://www.w3.org/2000/svg">
<path d="M6.25 5.76953C6.25 5.57031 6.17383 5.40039 6.02148 5.24805L1.45117 0.777344C1.32227 0.648438 1.16406 0.583984 0.976562 0.583984C0.595703 0.583984 0.291016 0.876953 0.291016 1.25781C0.291016 1.44531 0.367188 1.61523 0.496094 1.75L4.62109 5.76953L0.496094 9.78906C0.373047 9.91797 0.291016 10.0879 0.291016 10.2754C0.291016 10.6621 0.595703 10.9551 0.976562 10.9551C1.16406 10.9551 1.32227 10.8906 1.45117 10.7617L6.02148 6.29102C6.17969 6.13867 6.25 5.96875 6.25 5.76953Z" fill="white"/>
</svg>
