<svg width="12" height="8" viewBox="0 0 12 8" fill="none" xmlns="http://www.w3.org/2000/svg">
<path d="M6 7.45312C6.23675 7.45312 6.43968 7.36519 6.61556 7.17579L11.77 1.9131C11.9188 1.76429 12 1.57488 12 1.35166C12 0.905211 11.6483 0.546699 11.195 0.546699C10.9718 0.546699 10.7756 0.6414 10.6201 0.790216L6 5.53204L1.37993 0.790216C1.22435 0.6414 1.02142 0.546699 0.804961 0.546699C0.351747 0.546699 0 0.905211 0 1.35166C0 1.57488 0.0811725 1.76429 0.229989 1.9131L5.37768 7.17579C5.56032 7.36519 5.76325 7.45312 6 7.45312Z" fill="white"/>
</svg>
