<svg width="14" height="9" viewBox="0 0 14 9" fill="none" xmlns="http://www.w3.org/2000/svg">
<path d="M7 8.64062C7.26562 8.64062 7.50781 8.53906 7.70312 8.32812L13.6562 2.24219C13.8281 2.07031 13.9141 1.85938 13.9141 1.60156C13.9141 1.09375 13.5156 0.695312 13.0156 0.695312C12.7656 0.695312 12.5312 0.796875 12.3594 0.96875L7 6.46094L1.64062 0.96875C1.46094 0.796875 1.23438 0.695312 0.984375 0.695312C0.476562 0.695312 0.078125 1.09375 0.078125 1.60156C0.078125 1.85156 0.171875 2.07031 0.34375 2.24219L6.29688 8.32812C6.5 8.53906 6.73438 8.64062 7 8.64062Z" fill="#343538"/>
</svg>
