<svg width="50" height="62" viewBox="0 0 50 62" fill="none" xmlns="http://www.w3.org/2000/svg">
<path d="M0 53.191C0 58.3973 2.68714 61.0844 7.8215 61.0844H30.2783C35.4127 61.0844 38.0998 58.3733 38.0998 53.191V48.7524H42.1785C47.3129 48.7524 50 46.0413 50 40.8589V7.91747C50 2.71113 47.3129 0 42.1785 0H19.7217C14.5873 0 11.9002 2.71113 11.9002 7.91747V12.3321H7.8215C2.68714 12.3321 0 15.0672 0 20.2495V53.191ZM25.2879 8.61324C24.2322 8.61324 23.6564 7.89347 23.6564 7.10173V6.5499C23.6564 5.83013 24.1843 5.0144 25.2879 5.0144H36.5883C37.7159 5.0144 38.2198 5.83013 38.2198 6.5499V7.10173C38.2198 7.89347 37.6679 8.61324 36.5883 8.61324H25.2879ZM4.77447 52.8791V20.5614C4.77447 18.3541 5.9261 17.1305 8.25336 17.1305H15.571V30.1823C15.571 33.6612 17.2745 35.3407 20.7294 35.3407H33.3253V52.8791C33.3253 55.0864 32.1737 56.31 29.8464 56.31H8.22937C5.9261 56.31 4.77447 55.0864 4.77447 52.8791ZM21.1852 31.142C20.2015 31.142 19.7697 30.7342 19.7697 29.7265V18.0422L32.6775 31.142H21.1852Z" fill="url(#paint0_linear_477_22459)"/>
<defs>
<linearGradient id="paint0_linear_477_22459" x1="6.83477e-08" y1="37" x2="50" y2="37" gradientUnits="userSpaceOnUse">
<stop stop-color="#00B805"/>
<stop offset="0.525407" stop-color="#36AFE2"/>
<stop offset="1" stop-color="#6A67E2"/>
</linearGradient>
</defs>
</svg>
