<?xml version="1.0" standalone="no"?>
<!DOCTYPE svg PUBLIC "-//W3C//DTD SVG 20010904//EN"
 "http://www.w3.org/TR/2001/REC-SVG-20010904/DTD/svg10.dtd">
<svg version="1.0" xmlns="http://www.w3.org/2000/svg"
 width="300.000000pt" height="273.000000pt" viewBox="0 0 300.000000 273.000000"
 preserveAspectRatio="xMidYMid meet">
<metadata>
Created by potrace 1.10, written by Peter Selinger 2001-2011
</metadata>
<g transform="translate(0.000000,273.000000) scale(0.100000,-0.100000)"
fill="#000000" stroke="none">
<path d="M1304 2430 c-53 -22 -54 -29 -54 -387 l0 -333 -184 0 -185 0 -20 -26
c-44 -56 -44 -56 288 -388 275 -275 313 -309 341 -309 28 0 66 34 341 309 332
332 332 332 288 388 l-20 26 -185 0 -184 0 0 334 0 335 -24 28 -24 28 -179 2
c-98 1 -188 -2 -199 -7z m368 -47 c13 -15 17 -70 21 -342 6 -311 7 -325 27
-345 19 -19 34 -21 188 -24 166 -3 192 -9 192 -40 0 -9 -132 -148 -292 -309
-230 -231 -298 -293 -318 -293 -20 0 -88 62 -318 293 -160 161 -292 300 -292
309 0 31 26 37 192 40 234 4 212 -33 216 370 2 281 5 324 19 340 14 16 35 18
183 18 146 0 169 -2 182 -17z"/>
<path d="M559 1087 c-36 -27 -39 -52 -39 -295 l0 -239 26 -27 27 -26 916 0
917 0 27 28 27 28 0 238 c0 241 -3 266 -39 293 -12 9 -95 12 -311 12 l-295 1
-105 -103 c-114 -111 -155 -137 -219 -137 -63 0 -116 33 -226 141 l-100 99
-295 0 c-216 -1 -299 -4 -311 -13z m491 -25 l105 -2 90 -90 c193 -191 286
-195 471 -17 52 51 109 97 126 103 36 13 523 13 550 0 10 -4 20 -16 23 -27 4
-11 6 -116 6 -235 0 -190 -2 -218 -17 -235 -17 -18 -45 -19 -915 -19 -803 0
-899 2 -913 16 -14 13 -16 49 -16 242 0 125 4 233 9 240 17 28 97 32 481 24z"/>
<path d="M1875 781 c-26 -11 -51 -40 -64 -74 -22 -57 39 -137 105 -137 39 0
86 36 104 80 16 39 23 38 39 -5 31 -87 131 -101 186 -27 48 65 3 157 -81 169
-35 4 -43 1 -76 -32 -21 -20 -38 -42 -38 -50 0 -25 -19 -17 -35 15 -28 54 -90
81 -140 61z m92 -53 c38 -36 27 -89 -25 -117 -27 -14 -56 -7 -82 22 -63 67 40
158 107 95z m243 2 c28 -28 26 -75 -5 -105 -32 -33 -60 -31 -96 4 -34 35 -36
59 -8 95 26 33 79 36 109 6z"/>
</g>
</svg>
