<svg width="14" height="18" viewBox="0 0 14 18" fill="none" xmlns="http://www.w3.org/2000/svg">
<path d="M2.85156 17.7344H11.1484C12.7656 17.7344 13.5703 16.9141 13.5703 15.2891V8.19531C13.5703 7.1875 13.4531 6.75 12.8281 6.10938L8.52344 1.72656C7.92969 1.11719 7.4375 0.984375 6.5625 0.984375H2.85156C1.24219 0.984375 0.429688 1.8125 0.429688 3.4375V15.2891C0.429688 16.9219 1.23438 17.7344 2.85156 17.7344ZM2.90625 16.4766C2.10156 16.4766 1.6875 16.0469 1.6875 15.2656V3.46094C1.6875 2.6875 2.10156 2.24219 2.91406 2.24219H6.39062V6.78125C6.39062 7.76562 6.88281 8.25 7.85938 8.25H12.3125V15.2656C12.3125 16.0469 11.8984 16.4766 11.0859 16.4766H2.90625ZM8 7.07031C7.6875 7.07031 7.57031 6.94531 7.57031 6.63281V2.48438L12.0703 7.07031H8ZM7.59375 9.72656C7.59375 9.40625 7.32031 9.14844 7 9.14844C6.67969 9.14844 6.40625 9.40625 6.40625 9.72656V12.5625L6.45312 13.8359L5.78906 13.1484L5.08594 12.4297C4.97656 12.3125 4.8125 12.25 4.66406 12.25C4.34375 12.25 4.11719 12.4766 4.11719 12.7891C4.11719 12.9688 4.1875 13.1016 4.3125 13.2109L6.5625 15.2812C6.72656 15.4297 6.85156 15.4844 7 15.4844C7.14844 15.4844 7.27344 15.4297 7.4375 15.2812L9.6875 13.2109C9.8125 13.1016 9.88281 12.9688 9.88281 12.7891C9.88281 12.4766 9.64844 12.25 9.33594 12.25C9.17969 12.25 9.02344 12.3125 8.91406 12.4297L8.21094 13.1484L7.54688 13.8359L7.59375 12.5625V9.72656Z" fill="white"/>
</svg>
