<svg width="16" height="17" viewBox="0 0 16 17" fill="none" xmlns="http://www.w3.org/2000/svg">
<path d="M16 4.60714V3.84643L14.9821 3.53214L14.9036 3.16071L15.6214 2.42143L15.25 1.72857L14.2143 1.99643L13.9571 1.72857L14.225 0.721429L13.5429 0.307143L12.7821 1.05714L12.4 0.942857L12.15 0H11.3429L11.1214 0.942857L10.6893 1.05714L9.98571 0.307143L9.29286 0.7L9.58214 1.68929L9.29286 1.98929L8.275 1.72143L7.88214 2.40357L8.62143 3.15357L8.51786 3.525L7.5 3.80357L7.48929 4.57857L8.51786 4.84643L8.60357 5.27857L7.88571 5.98929L8.25714 6.65L9.31429 6.38214L9.57143 6.68929L9.28214 7.65L9.99286 8.06429L10.6857 7.33571L11.1 7.43929L11.3393 8.45714L12.1464 8.46786L12.3857 7.43929L12.8 7.31429L13.5393 8.08571L14.2679 7.65357L13.9536 6.65357L14.2321 6.36429L15.2607 6.67857L15.6286 5.96071L14.8821 5.28929L14.9607 4.85714L16 4.60714ZM11.7429 6.22143C10.625 6.22143 9.71429 5.31429 9.71429 4.19286C9.71429 3.07143 10.6214 2.16429 11.7429 2.16429C12.8643 2.16429 13.7714 3.07143 13.7714 4.19286C13.7714 5.31786 12.8643 6.22143 11.7429 6.22143ZM14.325 6.80714L16 7.325V8.75L14.0321 9.22857L13.8857 10.0393L15.275 11.3L14.5893 12.6536L12.6607 12.0571L12.1393 12.6L12.7357 14.475L11.3679 15.2857L9.97857 13.8393L9.20357 14.075L8.75357 16.0036L7.23929 15.9857L6.78929 14.0714L6.01429 13.8714L4.71429 15.2429L3.37857 14.4679L3.92143 12.6643L3.43214 12.0893L1.45 12.5929L0.746429 11.35L2.1 10.0143L1.92857 9.2L0 8.69643L0.0178571 7.23571L1.92857 6.71071L2.13214 6.00714L0.742857 4.6L1.48214 3.32143L3.39643 3.825L3.93929 3.26429L3.39643 1.40714L4.69643 0.667857L6.01071 2.075L6.82143 1.85714L7.23571 0H8.75L9.16429 1.63929L8.35714 1.42857L8.13214 1.36786L8.01429 1.57143L7.62143 2.25357L7.50357 2.45357L7.66786 2.61786L8.28214 3.23929L8.27143 3.275L7.42143 3.50714L7.2 3.56786L7.19643 3.79643L7.18929 4.25714C5.49286 4.62857 4.21429 6.14286 4.21429 7.95357C4.21429 10.0357 5.90357 11.7286 7.98929 11.7286C9.79286 11.7286 11.3 10.4643 11.675 8.77143L12.1464 8.77857L12.3929 8.78214L12.45 8.54286L12.65 7.68571L12.7179 7.66429L13.3286 8.3L13.4964 8.475L13.7036 8.35357L14.4321 7.92143L14.6393 7.79643L14.5679 7.56429L14.325 6.80714Z" fill="white"/>
</svg>
