<svg width="25" height="24" viewBox="0 0 25 24" fill="none" xmlns="http://www.w3.org/2000/svg">
<g clip-path="url(#clip0_338_1049)">
<path d="M12.5833 14.4609C13.9559 14.4609 15.0686 13.3591 15.0686 12C15.0686 10.6409 13.9559 9.53906 12.5833 9.53906C11.2106 9.53906 10.0979 10.6409 10.0979 12C10.0979 13.3591 11.2106 14.4609 12.5833 14.4609Z" fill="#5F5F5F"/>
<path d="M12.5833 0.28125C6.04701 0.28125 0.748291 5.52792 0.748291 12C0.748291 18.4721 6.04701 23.7188 12.5833 23.7188C19.1196 23.7188 24.4183 18.4721 24.4183 12C24.4183 5.52792 19.1196 0.28125 12.5833 0.28125ZM19.8953 14.9784C19.8385 16.0926 19.5223 17.1912 18.7024 17.9945C17.8744 18.8055 16.7596 19.1076 15.6236 19.1633H9.54302C8.40686 19.1076 7.2922 18.8056 6.46427 17.9945C5.64424 17.1912 5.32811 16.0926 5.2713 14.9784V9.02156C5.32811 7.90744 5.64429 6.80878 6.46427 6.00544C7.2922 5.1945 8.40701 4.89234 9.54302 4.8367H15.6236C16.7597 4.89234 17.8744 5.19436 18.7023 6.00544C19.5223 6.80878 19.8385 7.90744 19.8953 9.02156L19.8953 14.9784Z" fill="#5F5F5F"/>
<path d="M15.5468 6.19398C14.0657 6.15376 11.1013 6.15376 9.62019 6.19398C8.84944 6.21494 7.97569 6.40492 7.42654 6.9857C6.85591 7.58941 6.64027 8.31878 6.6184 9.13474C6.57996 10.5669 6.6184 14.8653 6.6184 14.8653C6.64345 15.6812 6.85591 16.4106 7.42654 17.0143C7.97569 17.5953 8.84944 17.7851 9.62019 17.8061C11.1013 17.8463 14.0657 17.8463 15.5468 17.8061C16.3175 17.7851 17.1913 17.5951 17.7404 17.0143C18.3111 16.4106 18.5267 15.6813 18.5486 14.8653V9.13474C18.5267 8.31878 18.3111 7.58941 17.7404 6.9857C17.1911 6.40473 16.3173 6.21494 15.5468 6.19398ZM12.5833 15.8145C11.8214 15.8145 11.0766 15.5908 10.4431 15.1716C9.80957 14.7525 9.31581 14.1568 9.02424 13.4598C8.73267 12.7627 8.65638 11.9958 8.80502 11.2559C8.95366 10.5159 9.32056 9.83625 9.85931 9.30279C10.3981 8.76933 11.0845 8.40604 11.8317 8.25886C12.579 8.11168 13.3536 8.18721 14.0575 8.47592C14.7614 8.76463 15.3631 9.25354 15.7864 9.88082C16.2097 10.5081 16.4356 11.2456 16.4356 12C16.4356 13.0117 16.0297 13.9819 15.3073 14.6972C14.5848 15.4126 13.605 15.8145 12.5833 15.8145ZM16.452 8.97292C16.2996 8.97289 16.1506 8.92811 16.024 8.84426C15.8973 8.76041 15.7986 8.64125 15.7403 8.50185C15.682 8.36244 15.6668 8.20906 15.6965 8.06108C15.7263 7.91311 15.7997 7.77719 15.9074 7.67052C16.0152 7.56385 16.1525 7.49121 16.3019 7.46179C16.4514 7.43236 16.6063 7.44748 16.747 7.50523C16.8878 7.56298 17.0081 7.66076 17.0928 7.78621C17.1774 7.91166 17.2226 8.05915 17.2226 8.21003C17.2226 8.31023 17.2027 8.40945 17.1639 8.50202C17.1252 8.59459 17.0684 8.6787 16.9969 8.74954C16.9253 8.82039 16.8404 8.87658 16.7469 8.91491C16.6534 8.95323 16.5532 8.97295 16.452 8.97292Z" fill="#5F5F5F"/>
</g>
<defs>
<clipPath id="clip0_338_1049">
<rect width="24.2381" height="24" fill="white" transform="translate(0.464233)"/>
</clipPath>
</defs>
</svg>
