<svg width="18" height="18" viewBox="0 0 18 18" fill="none" xmlns="http://www.w3.org/2000/svg">
<path d="M17.6176 13.9106L13.501 9.79399C12.6889 8.98192 11.4761 8.82373 10.4988 9.30534L6.75138 5.55789V3.37481L2.25163 0L0.00175769 2.24987L3.37657 6.74962H5.55965L9.3071 10.4971C8.829 11.4744 8.98368 12.6872 9.79574 13.4992L13.9123 17.6158C14.4256 18.1291 15.2552 18.1291 15.7649 17.6158L17.6176 15.7632C18.1273 15.2499 18.1273 14.4203 17.6176 13.9106ZM11.6624 7.90972C12.6573 7.90972 13.5924 8.29641 14.2955 8.9995L14.9775 9.68149C15.5329 9.43893 16.0602 9.10145 16.5172 8.64444C17.8215 7.34022 18.2644 5.50516 17.8496 3.83885C17.7723 3.52246 17.375 3.41348 17.143 3.6455L14.5275 6.26098L12.1405 5.86374L11.7433 3.47676L14.3588 0.86128C14.5908 0.629262 14.4783 0.232018 14.1584 0.151163C12.4921 -0.260142 10.657 0.182802 9.35632 1.48351C8.35442 2.48541 7.88335 3.80721 7.90796 5.1255L10.7941 8.01166C11.0789 7.94487 11.3742 7.90972 11.6624 7.90972ZM8.00991 10.7924L6.01666 8.79912L0.659143 14.1601C-0.219714 15.039 -0.219714 16.4628 0.659143 17.3416C1.538 18.2205 2.96175 18.2205 3.84061 17.3416L8.18568 12.9965C7.91851 12.297 7.83765 11.5341 8.00991 10.7924ZM2.25163 16.5928C1.7876 16.5928 1.40793 16.2132 1.40793 15.7491C1.40793 15.2816 1.78408 14.9054 2.25163 14.9054C2.71918 14.9054 3.09534 15.2816 3.09534 15.7491C3.09534 16.2132 2.71918 16.5928 2.25163 16.5928Z" fill="white"/>
</svg>
