<svg width="22" height="24" viewBox="0 0 22 24" fill="none" xmlns="http://www.w3.org/2000/svg">
<path d="M10.0641 19.5185V18.1439L0 23.9993L8.70182 20.0796V21.4729L19.9348 14.7557L19.4205 13.8643L10.0641 19.5185Z" fill="#00B805"/>
<path d="M21.9956 13.05H18.8877L19.4207 13.9727L19.9351 14.8642L20.4416 15.7416L21.9956 13.05Z" fill="#00B805"/>
<path d="M3.65338 2.20841L7.1338 0.246238V0L3.44141 2.08529V7.44034L3.65338 7.56814V2.20841Z" fill="#00B805"/>
<path d="M0.207298 10.3067L3.47886 8.46455V8.20117L0 10.1852V23.1504L0.208858 23.0304L0.207298 10.3067Z" fill="#00B805"/>
<path d="M17.9835 7.65201L13.4448 5.0415V16.2192L17.9835 13.5775V7.65201Z" fill="#00B805"/>
<path d="M8.02397 18.5793V10.9379L3.479 8.20117L3.48368 21.1945L8.02397 18.5793Z" fill="#00B805"/>
<path d="M8.70021 18.1913L10.064 17.3762V6.91543L13.4322 5.0421V3.66905L7.13379 0.00341797V9.63659L8.70021 10.5327V18.1913Z" fill="#00B805"/>
</svg>
