<svg width="238" height="48" viewBox="0 0 238 48" fill="none" xmlns="http://www.w3.org/2000/svg">
<path d="M59.8505 13.5684H67.0595C70.5616 13.5684 73.0431 15.3281 73.0431 18.3619C73.0431 20.1995 72.0498 21.6634 70.4728 22.411V22.4639C72.6608 23.0495 73.8896 24.9152 73.8896 27.0207C73.8896 30.5621 70.8551 32.3748 67.2336 32.3748H59.8471V13.5684H59.8505ZM67.0629 21.4797C68.93 21.4797 70.0974 20.2805 70.0974 18.6297C70.0974 16.9789 68.988 15.8608 67.0322 15.8608H62.7416V21.4828H67.0629V21.4797ZM67.3838 30.0856C69.6024 30.0856 70.9166 28.8054 70.9166 26.8619C70.9166 24.9712 69.5444 23.6662 67.3838 23.6662H62.7416V30.0856H67.3838Z" fill="#03254C"/>
<path d="M77.8341 13.5681H80.7252V25.6873C80.7252 28.5902 82.7971 30.269 85.951 30.269C89.105 30.269 91.1461 28.5902 91.1461 25.6593V13.5649H94.0372V25.7122C94.0372 29.9202 90.798 32.6922 85.9783 32.6922C81.1314 32.6922 77.8341 29.9233 77.8341 25.7122V13.5681Z" fill="#03254C"/>
<path d="M99.2629 13.5679H102.154V32.3744H99.2629V13.5679Z" fill="#03254C"/>
<path d="M108.182 13.5679H111.073V30.082H120.326V32.3744H108.182V13.5679Z" fill="#03254C"/>
<path d="M122.97 13.5679H129.831C136.108 13.5679 140.252 17.0034 140.252 22.9431C140.252 28.9108 136.108 32.3713 129.831 32.3713H122.97V13.5679ZM129.626 30.0851C134.237 30.0851 137.275 27.6089 137.275 22.9462C137.275 18.3365 134.21 15.8603 129.626 15.8603H125.861V30.0851H129.626Z" fill="#03254C"/>
<path d="M162.706 13.5679H170.266C174.031 13.5679 176.718 15.8852 176.718 19.4546C176.718 23.0241 174.031 25.4224 170.266 25.4224H165.597V32.3744H162.706V13.5679ZM169.799 23.1331C172.25 23.1331 173.799 21.7221 173.799 19.4577C173.799 17.2214 172.253 15.8603 169.83 15.8603H165.597V23.1331H169.799Z" fill="#03254C"/>
<path d="M185.213 15.8603H178.121V13.5679H195.167V15.8603H188.074V32.3744H185.213V15.8603Z" fill="#03254C"/>
<path d="M198.35 13.5679H201.241V32.3744H198.35V13.5679Z" fill="#03254C"/>
<path d="M204.338 13.5684H207.434L212.571 26.8619C212.922 27.8741 213.359 29.4471 213.359 29.4471H213.417C213.417 29.4471 213.827 27.8741 214.206 26.8619L219.373 13.5684H222.439L214.905 32.3749H211.871L204.338 13.5684Z" fill="#03254C"/>
<path d="M225.504 13.5679H237.502V15.8603H228.395V21.747H235.781V24.0394H228.395V30.0851H238V32.3775H225.507V13.5679H225.504Z" fill="#03254C"/>
<path d="M159.668 32.3749H156.572L151.435 19.0814C151.083 18.0691 150.646 16.4962 150.646 16.4962H150.588C150.588 16.4962 150.178 18.0691 149.8 19.0814L144.632 32.3749H141.567L149.1 13.5684H152.134L159.668 32.3749Z" fill="#03254C"/>
<path d="M22.0399 39.0086V36.2614L0 47.9633L19.0567 40.1299V42.9144L43.6566 29.4901L42.5302 27.7085L22.0399 39.0086Z" fill="#03254C"/>
<path d="M48.1681 26.0791H41.3619L42.5292 27.923L43.6556 29.7046L44.765 31.4582L48.1681 26.0791Z" fill="#03254C"/>
<path d="M8.00065 4.41351L15.6226 0.492107V0L7.53644 4.16746V14.8695L8.00065 15.1249V4.41351Z" fill="#03254C"/>
<path d="M0.453975 20.6005L7.61858 16.9189V16.3926L0 20.3576V46.2687L0.457392 46.0289L0.453975 20.6005Z" fill="#03254C"/>
<path d="M39.3841 15.2933L29.4445 10.0762V32.4147L39.3841 27.1353V15.2933Z" fill="#03254C"/>
<path d="M17.5715 37.1333V21.862L7.61823 16.3926L7.62846 42.3598L17.5715 37.1333Z" fill="#03254C"/>
<path d="M19.0547 36.3548L22.0413 34.7258V13.82L29.4176 10.0761V7.33211L15.6243 0.00634766V19.2582L19.0547 21.0492V36.3548Z" fill="#03254C"/>
</svg>
