<svg width="20" height="11" viewBox="0 0 20 11" fill="none" xmlns="http://www.w3.org/2000/svg">
<path d="M1.78223 2.50781H18.209C18.6484 2.50781 19.0088 2.14746 19.0088 1.70801C19.0088 1.26855 18.6484 0.916992 18.209 0.916992H1.78223C1.34277 0.916992 0.991211 1.26855 0.991211 1.70801C0.991211 2.13867 1.34277 2.50781 1.78223 2.50781ZM1.78223 6.46289H18.209C18.6484 6.46289 19.0088 6.10254 19.0088 5.67188C19.0088 5.22363 18.6484 4.86328 18.209 4.86328H1.78223C1.34277 4.86328 0.991211 5.22363 0.991211 5.67188C0.991211 6.10254 1.34277 6.46289 1.78223 6.46289ZM1.78223 10.4268H18.209C18.6484 10.4268 19.0088 10.0664 19.0088 9.61816C19.0088 9.17871 18.6484 8.82715 18.209 8.82715H1.78223C1.34277 8.82715 0.991211 9.1875 0.991211 9.61816C0.991211 10.0576 1.34277 10.4268 1.78223 10.4268Z" fill="white"/>
</svg>
