<svg width="11" height="11" viewBox="0 0 11 11" fill="none" xmlns="http://www.w3.org/2000/svg">
<path d="M5.85449 10.4551C8.5791 10.4551 10.835 8.19434 10.835 5.47461C10.835 2.75 8.57422 0.494141 5.84961 0.494141C3.12988 0.494141 0.874023 2.75 0.874023 5.47461C0.874023 8.19434 3.13477 10.4551 5.85449 10.4551ZM5.85449 9.625C3.5498 9.625 1.70898 7.7793 1.70898 5.47461C1.70898 3.16992 3.54492 1.32422 5.84961 1.32422C8.1543 1.32422 10.0049 3.16992 10.0049 5.47461C10.0049 7.7793 8.15918 9.625 5.85449 9.625ZM5.84961 6.35352C6.0791 6.35352 6.21582 6.22168 6.2207 5.96777L6.29395 3.38965C6.29883 3.14062 6.10352 2.95508 5.84473 2.95508C5.58105 2.95508 5.39551 3.13574 5.40039 3.38477L5.46387 5.96777C5.46875 6.2168 5.60547 6.35352 5.84961 6.35352ZM5.84961 7.94043C6.12793 7.94043 6.37207 7.71582 6.37207 7.43262C6.37207 7.14941 6.13281 6.9248 5.84961 6.9248C5.56152 6.9248 5.32227 7.1543 5.32227 7.43262C5.32227 7.71094 5.56641 7.94043 5.84961 7.94043Z" fill="#8A8D94"/>
</svg>
