<svg width="14" height="13" viewBox="0 0 14 13" fill="none" xmlns="http://www.w3.org/2000/svg">
<path d="M7 12.3223C10.3105 12.3223 13.0527 9.58594 13.0527 6.26953C13.0527 2.95898 10.3105 0.216797 6.99414 0.216797C3.68359 0.216797 0.947266 2.95898 0.947266 6.26953C0.947266 9.58594 3.68945 12.3223 7 12.3223ZM7 11.1328C4.30469 11.1328 2.14258 8.96484 2.14258 6.26953C2.14258 3.57422 4.29883 1.41211 6.99414 1.41211C9.68945 1.41211 11.8633 3.57422 11.8633 6.26953C11.8633 8.96484 9.69531 11.1328 7 11.1328ZM4.28711 6.26953C4.28711 6.58594 4.51562 6.80859 4.84375 6.80859H6.44922V8.41992C6.44922 8.74219 6.67188 8.9707 6.98828 8.9707C7.31641 8.9707 7.54492 8.74219 7.54492 8.41992V6.80859H9.15625C9.47852 6.80859 9.70117 6.58594 9.70117 6.26953C9.70117 5.94141 9.47852 5.71289 9.15625 5.71289H7.54492V4.10742C7.54492 3.7793 7.31641 3.55664 6.98828 3.55664C6.67188 3.55664 6.44922 3.7793 6.44922 4.10742V5.71289H4.84375C4.51562 5.71289 4.28711 5.94141 4.28711 6.26953Z" fill="#4D4BCF"/>
</svg>
