<svg width="9" height="10" viewBox="0 0 9 10" fill="none" xmlns="http://www.w3.org/2000/svg">
<path d="M2.58984 9.18359H6.17188C6.73047 9.18359 7.10547 8.82031 7.13281 8.26172L7.40234 2.58203H7.87109C8.03125 2.58203 8.16016 2.44531 8.16016 2.28516C8.16016 2.125 8.03125 1.99219 7.87109 1.99219H6.08594V1.39453C6.08594 0.828125 5.71875 0.484375 5.11719 0.484375H3.63281C3.03125 0.484375 2.66406 0.828125 2.66406 1.39453V1.99219H0.890625C0.734375 1.99219 0.597656 2.125 0.597656 2.28516C0.597656 2.44922 0.734375 2.58203 0.890625 2.58203H1.35938L1.62891 8.26562C1.65625 8.82422 2.02344 9.18359 2.58984 9.18359ZM3.28516 1.43359C3.28516 1.21094 3.44141 1.06641 3.67578 1.06641H5.07422C5.30859 1.06641 5.46484 1.21094 5.46484 1.43359V1.99219H3.28516V1.43359ZM2.64453 8.59375C2.42188 8.59375 2.25391 8.42578 2.24219 8.19531L1.96875 2.58203H6.77344L6.51562 8.19531C6.50781 8.42969 6.33984 8.59375 6.10938 8.59375H2.64453ZM3.22266 7.92578C3.37109 7.92578 3.46875 7.83203 3.46484 7.69531L3.34375 3.51562C3.33984 3.37891 3.24219 3.28906 3.10156 3.28906C2.95312 3.28906 2.85547 3.38281 2.85938 3.51953L2.97656 7.69531C2.98047 7.83594 3.07812 7.92578 3.22266 7.92578ZM4.37891 7.92578C4.52734 7.92578 4.63281 7.83203 4.63281 7.69531V3.51953C4.63281 3.38281 4.52734 3.28906 4.37891 3.28906C4.23047 3.28906 4.12891 3.38281 4.12891 3.51953V7.69531C4.12891 7.83203 4.23047 7.92578 4.37891 7.92578ZM5.53906 7.92578C5.67969 7.92578 5.77734 7.83594 5.78125 7.69531L5.89844 3.51953C5.90234 3.38281 5.80469 3.28906 5.65625 3.28906C5.51562 3.28906 5.41797 3.37891 5.41406 3.51953L5.29688 7.69531C5.29297 7.83203 5.39062 7.92578 5.53906 7.92578Z" fill="white"/>
</svg>
