<svg width="14" height="14" viewBox="0 0 14 14" fill="none" xmlns="http://www.w3.org/2000/svg">
<path d="M0.214968 5.82031C0.214968 8.88965 2.71008 11.3848 5.77942 11.3848C6.92102 11.3848 7.96692 11.0361 8.84192 10.4414L11.9865 13.5859C12.1779 13.7842 12.4445 13.873 12.7111 13.873C13.2921 13.873 13.7091 13.4355 13.7091 12.8682C13.7091 12.5947 13.6134 12.3418 13.4288 12.1504L10.3048 9.01953C10.9542 8.12402 11.3439 7.0166 11.3439 5.82031C11.3439 2.75098 8.84876 0.255859 5.77942 0.255859C2.71008 0.255859 0.214968 2.75098 0.214968 5.82031ZM1.66419 5.82031C1.66419 3.55078 3.50305 1.70508 5.77942 1.70508C8.04895 1.70508 9.89466 3.55078 9.89466 5.82031C9.89466 8.08984 8.04895 9.93555 5.77942 9.93555C3.50305 9.93555 1.66419 8.08984 1.66419 5.82031Z" fill="#8A8D94"/>
</svg>
