<svg width="20" height="16" viewBox="0 0 20 16" fill="none" xmlns="http://www.w3.org/2000/svg">
<path d="M18.3779 4.54529L17.1459 6.39831C17.74 7.58332 18.0309 8.89721 17.9924 10.2223C17.954 11.5473 17.5874 12.8421 16.9255 13.9907H3.0429C2.18267 12.4984 1.82622 10.7686 2.02639 9.05771C2.22656 7.34687 2.9727 5.74607 4.15419 4.49263C5.33569 3.23919 6.88964 2.39984 8.58567 2.099C10.2817 1.79817 12.0295 2.05186 13.5701 2.82248L15.4231 1.59048C13.5365 0.380722 11.2987 -0.161373 9.06761 0.0509044C6.83654 0.263182 4.74112 1.21757 3.11652 2.7614C1.49192 4.30523 0.432011 6.3493 0.106336 8.56666C-0.219339 10.784 0.208035 13.0465 1.3201 14.9923C1.49489 15.2951 1.74588 15.5468 2.04811 15.7226C2.35035 15.8983 2.69331 15.9918 3.0429 15.9939H16.9155C17.2685 15.9953 17.6156 15.9034 17.9217 15.7276C18.2277 15.5517 18.4819 15.298 18.6583 14.9923C19.5812 13.3936 20.0444 11.571 19.9967 9.72569C19.9489 7.88036 19.3922 6.08412 18.3879 4.53528L18.3779 4.54529ZM8.57191 11.3965C8.75796 11.5827 8.9789 11.7305 9.22209 11.8313C9.46528 11.9321 9.72596 11.984 9.98922 11.984C10.2525 11.984 10.5132 11.9321 10.7564 11.8313C10.9995 11.7305 11.2205 11.5827 11.4065 11.3965L17.0758 2.8926L8.57191 8.56184C8.38566 8.74788 8.2379 8.96882 8.13709 9.21202C8.03627 9.45521 7.98438 9.71589 7.98438 9.97915C7.98438 10.2424 8.03627 10.5031 8.13709 10.7463C8.2379 10.9895 8.38566 11.2104 8.57191 11.3965Z" fill="#8A8D94"/>
</svg>
