<svg width="21" height="21" viewBox="0 0 21 21" fill="none" xmlns="http://www.w3.org/2000/svg">
<path d="M10.709 20.9102C16.1582 20.9102 20.6699 16.3887 20.6699 10.9492C20.6699 5.5 16.1484 0.988281 10.6992 0.988281C5.25977 0.988281 0.748047 5.5 0.748047 10.9492C0.748047 16.3887 5.26953 20.9102 10.709 20.9102ZM8.39453 15.9395C8.0918 15.627 8.0918 15.1387 8.39453 14.8555L12.5352 10.959L8.39453 7.07227C8.08203 6.7793 8.0918 6.28125 8.4043 5.98828C8.69727 5.70508 9.16602 5.73438 9.47852 6.02734L13.668 9.96289C14.2441 10.5 14.2344 11.4277 13.668 11.9551L9.47852 15.9004C9.19531 16.1738 8.66797 16.1934 8.39453 15.9395Z" fill="#15151D"/>
</svg>
