<svg width="22" height="18" viewBox="0 0 22 18" fill="none" xmlns="http://www.w3.org/2000/svg">
<path d="M8 12C5.33 12 0 13.34 0 16V18H16V16C16 13.34 10.67 12 8 12Z" fill="#8A8D94"/>
<path d="M21.1 3.84C21.11 3.73 21.12 3.62 21.12 3.5C21.12 3.38 21.11 3.27 21.09 3.16L21.83 2.58C21.9 2.53 21.91 2.43 21.87 2.36L21.17 1.15C21.13 1.07 21.03 1.05 20.96 1.07L20.1 1.42C19.92 1.28 19.72 1.17 19.51 1.08L19.38 0.15C19.36 0.0600001 19.29 0 19.2 0H17.8C17.71 0 17.64 0.0600001 17.63 0.15L17.5 1.08C17.29 1.17 17.09 1.29 16.91 1.42L16.04 1.07C15.96 1.04 15.87 1.07 15.83 1.15L15.13 2.36C15.09 2.44 15.1 2.53 15.17 2.58L15.91 3.16C15.89 3.27 15.88 3.39 15.88 3.5C15.88 3.61 15.89 3.73 15.91 3.84L15.17 4.42C15.1 4.47 15.09 4.57 15.13 4.64L15.83 5.85C15.87 5.93 15.97 5.95 16.04 5.93L16.91 5.58C17.09 5.72 17.29 5.83 17.5 5.92L17.63 6.85C17.64 6.94 17.71 7 17.8 7H19.2C19.29 7 19.36 6.94 19.37 6.85L19.5 5.92C19.71 5.83 19.91 5.71 20.09 5.58L20.96 5.93C21.04 5.96 21.13 5.93 21.17 5.85L21.87 4.64C21.91 4.56 21.9 4.47 21.83 4.42L21.1 3.84ZM18.5 4.75C17.81 4.75 17.25 4.19 17.25 3.5C17.25 2.81 17.81 2.25 18.5 2.25C19.19 2.25 19.75 2.81 19.75 3.5C19.75 4.19 19.19 4.75 18.5 4.75Z" fill="#8A8D94"/>
<path d="M18.92 8.68L18.42 7.81C18.39 7.75 18.32 7.73 18.27 7.75L17.65 8C17.52 7.9 17.38 7.82 17.23 7.76L17.14 7.1C17.12 7.04 17.06 7 17 7H16C15.94 7 15.89 7.04 15.88 7.11L15.79 7.77C15.64 7.83 15.5 7.92 15.37 8.01L14.75 7.76C14.69 7.74 14.63 7.76 14.6 7.82L14.1 8.69C14.07 8.75 14.08 8.81 14.13 8.85L14.66 9.26C14.65 9.34 14.64 9.42 14.64 9.5C14.64 9.58 14.65 9.67 14.66 9.74L14.13 10.15C14.08 10.19 14.07 10.26 14.1 10.31L14.6 11.18C14.63 11.24 14.7 11.26 14.75 11.24L15.37 10.99C15.5 11.09 15.64 11.17 15.79 11.23L15.88 11.89C15.89 11.96 15.94 12 16 12H17C17.06 12 17.12 11.96 17.12 11.89L17.21 11.23C17.36 11.17 17.5 11.08 17.63 10.99L18.25 11.24C18.31 11.26 18.37 11.24 18.4 11.18L18.9 10.31C18.93 10.25 18.92 10.19 18.87 10.15L18.35 9.74C18.36 9.66 18.37 9.58 18.37 9.5C18.37 9.42 18.36 9.33 18.35 9.26L18.88 8.85C18.93 8.81 18.94 8.74 18.92 8.68ZM16.5 10.33C16.04 10.33 15.67 9.95 15.67 9.5C15.67 9.04 16.05 8.67 16.5 8.67C16.95 8.67 17.33 9.05 17.33 9.5C17.33 9.96 16.96 10.33 16.5 10.33Z" fill="#8A8D94"/>
<path d="M3.74 6H12.27C12.54 6 12.76 5.78 12.76 5.51V5.49C12.76 5.22 12.54 5 12.27 5H12C12 3.52 11.19 2.25 10 1.55V2.5C10 2.78 9.78 3 9.5 3C9.22 3 9 2.78 9 2.5V1.14C8.68 1.06 8.35 1 8 1C7.65 1 7.32 1.06 7 1.14V2.5C7 2.78 6.78 3 6.5 3C6.22 3 6 2.78 6 2.5V1.55C4.81 2.25 4 3.52 4 5H3.74C3.47 5 3.25 5.22 3.25 5.49V5.52C3.25 5.78 3.47 6 3.74 6Z" fill="#8A8D94"/>
<path d="M8.00001 10C9.86001 10 11.41 8.72 11.86 7H4.14001C4.59001 8.72 6.14001 10 8.00001 10Z" fill="#8A8D94"/>
</svg>
