<svg width="25" height="24" viewBox="0 0 25 24" fill="none" xmlns="http://www.w3.org/2000/svg">
<g clip-path="url(#clip0_338_1046)">
<ellipse cx="12.1865" cy="12" rx="12.119" ry="12" fill="#5F5F5F"/>
<path d="M19.2559 6.00672C18.6405 6.45846 17.9591 6.80396 17.2379 7.02993C16.8509 6.56682 16.3365 6.23858 15.7643 6.0896C15.1921 5.94062 14.5898 5.9781 14.0388 6.19696C13.4877 6.41581 13.0146 6.80549 12.6833 7.31329C12.352 7.82109 12.1786 8.42251 12.1865 9.0362V9.70496C11.0571 9.73544 9.93796 9.47478 8.92879 8.94622C7.91961 8.41765 7.05173 7.63758 6.40242 6.67548C6.40242 6.67548 3.83171 12.6943 9.6158 15.3694C8.29223 16.3043 6.7155 16.773 5.11707 16.7069C10.9012 20.0507 17.9706 16.7069 17.9706 9.01614C17.97 8.82986 17.9528 8.64404 17.9192 8.46107C18.5751 7.78796 19.038 6.93811 19.2559 6.00672Z" fill="white"/>
</g>
<defs>
<clipPath id="clip0_338_1046">
<rect width="24.2381" height="24" fill="white" transform="translate(0.0674438)"/>
</clipPath>
</defs>
</svg>
