<svg width="26" height="24" viewBox="0 0 26 24" fill="none" xmlns="http://www.w3.org/2000/svg">
<g clip-path="url(#clip0_338_1053)">
<path d="M11.2993 13.9358L14.6607 12.0047L11.2993 10.0642V13.9358Z" fill="#5F5F5F"/>
<path d="M12.98 0C10.5831 0 8.24001 0.703788 6.24704 2.02236C4.25407 3.34094 2.70074 5.21509 1.78348 7.4078C0.866213 9.60051 0.626215 12.0133 1.09383 14.3411C1.56145 16.6689 2.71568 18.8071 4.41056 20.4853C6.10544 22.1635 8.26485 23.3064 10.6157 23.7694C12.9666 24.2324 15.4033 23.9948 17.6178 23.0866C19.8323 22.1783 21.725 20.6402 23.0567 18.6668C24.3883 16.6935 25.0991 14.3734 25.0991 12C25.0991 8.8174 23.8223 5.76516 21.5495 3.51472C19.2767 1.26428 16.1942 0 12.98 0V0ZM19.3585 14.1237C19.3587 14.4375 19.2964 14.7484 19.1753 15.0384C19.0541 15.3284 18.8764 15.5919 18.6524 15.8139C18.4283 16.0359 18.1623 16.2121 17.8695 16.3322C17.5767 16.4524 17.2628 16.5142 16.9458 16.5142H9.01422C8.69725 16.5142 8.38339 16.4524 8.09057 16.3322C7.79775 16.2121 7.53171 16.0359 7.30766 15.8139C7.0836 15.5919 6.90592 15.3284 6.78477 15.0384C6.66361 14.7484 6.60136 14.4375 6.60157 14.1237V9.87632C6.60136 9.56246 6.66361 9.25164 6.78477 8.96162C6.90592 8.6716 7.0836 8.40806 7.30766 8.18605C7.53171 7.96405 7.79775 7.78794 8.09057 7.66779C8.38339 7.54763 8.69725 7.48579 9.01422 7.48579H16.9458C17.2628 7.48579 17.5767 7.54763 17.8695 7.66779C18.1623 7.78794 18.4283 7.96405 18.6524 8.18605C18.8764 8.40806 19.0541 8.6716 19.1753 8.96162C19.2964 9.25164 19.3587 9.56246 19.3585 9.87632V14.1237Z" fill="#5F5F5F"/>
</g>
<defs>
<clipPath id="clip0_338_1053">
<rect width="24.2381" height="24" fill="white" transform="translate(0.861023)"/>
</clipPath>
</defs>
</svg>
